<svg width="22" height="22" viewBox="0 0 22 22" fill="none" xmlns="http://www.w3.org/2000/svg">
<path d="M11 15.0219C10.85 15.0219 10.7094 14.9983 10.5781 14.951C10.4469 14.9045 10.325 14.825 10.2125 14.7125L6.1625 10.6625C5.95625 10.4563 5.85313 10.1938 5.85313 9.875C5.85313 9.55625 5.95625 9.29375 6.1625 9.0875C6.36875 8.88125 6.63575 8.77325 6.9635 8.7635C7.292 8.7545 7.55937 8.85312 7.76562 9.05937L9.875 11.1687V3.125C9.875 2.80625 9.983 2.53888 10.199 2.32288C10.4143 2.10763 10.6812 2 11 2C11.3188 2 11.5861 2.10763 11.8021 2.32288C12.0174 2.53888 12.125 2.80625 12.125 3.125V11.1687L14.2344 9.05937C14.4406 8.85312 14.708 8.7545 15.0365 8.7635C15.3643 8.77325 15.6312 8.88125 15.8375 9.0875C16.0437 9.29375 16.1469 9.55625 16.1469 9.875C16.1469 10.1938 16.0437 10.4563 15.8375 10.6625L11.7875 14.7125C11.675 14.825 11.5531 14.9045 11.4219 14.951C11.2906 14.9983 11.15 15.0219 11 15.0219ZM4.25 20C3.63125 20 3.10175 19.7799 2.6615 19.3396C2.2205 18.8986 2 18.3687 2 17.75V15.5C2 15.1812 2.10763 14.9139 2.32288 14.6979C2.53888 14.4826 2.80625 14.375 3.125 14.375C3.44375 14.375 3.71112 14.4826 3.92712 14.6979C4.14237 14.9139 4.25 15.1812 4.25 15.5V17.75H17.75V15.5C17.75 15.1812 17.858 14.9139 18.074 14.6979C18.2892 14.4826 18.5562 14.375 18.875 14.375C19.1938 14.375 19.4608 14.4826 19.676 14.6979C19.892 14.9139 20 15.1812 20 15.5V17.75C20 18.3687 19.7799 18.8986 19.3396 19.3396C18.8986 19.7799 18.3687 20 17.75 20H4.25Z" fill="#28B954"/>
</svg>
