<svg width="32" height="32" viewBox="0 0 32 32" fill="none" xmlns="http://www.w3.org/2000/svg">
<rect y="16" width="2.13323" height="2.16667" fill="#A5A647"/>
<rect x="2.13086" y="13.833" width="2.13323" height="2.16667" fill="#A5A647"/>
<rect x="2.13086" y="16" width="2.13323" height="2.16667" fill="#D7DAA8"/>
<rect x="2.13086" y="18.167" width="2.13323" height="2.16667" fill="#A5A647"/>
<rect x="4.26758" y="11.667" width="2.13323" height="2.16667" fill="#A5A647"/>
<rect x="4.26758" y="13.833" width="2.13323" height="2.16667" fill="#48412F"/>
<rect x="4.26758" y="16" width="2.13323" height="2.16667" fill="#48412F"/>
<rect x="4.26758" y="18.167" width="2.13323" height="2.16667" fill="#D7DAA8"/>
<rect x="4.26758" y="20.333" width="2.13323" height="2.16667" fill="#A5A647"/>
<rect x="6.40039" y="11.667" width="2.13323" height="2.16667" fill="#A5A647"/>
<rect x="6.40039" y="13.833" width="2.13323" height="2.16667" fill="#E7E7C5"/>
<rect x="6.40039" y="16" width="2.13323" height="2.16667" fill="#48412F"/>
<rect x="6.40039" y="18.167" width="2.13323" height="2.16667" fill="#E7E7C5"/>
<rect x="6.40039" y="20.333" width="2.13323" height="2.16667" fill="#D7DAA8"/>
<rect x="6.40039" y="22.5" width="2.13323" height="2.16667" fill="#A5A647"/>
<rect x="8.5332" y="9.5" width="2.13323" height="2.16667" fill="#A5A647"/>
<rect x="8.5332" y="11.667" width="2.13323" height="2.16667" fill="#D7DAA8"/>
<rect x="8.5332" y="13.833" width="2.13323" height="2.16667" fill="#B4B4AC"/>
<rect x="8.5332" y="16" width="2.13323" height="2.16667" fill="#625D4C"/>
<rect x="8.5332" y="18.167" width="2.13323" height="2.16667" fill="#48412F"/>
<rect x="8.5332" y="20.333" width="2.13323" height="2.16667" fill="#8F8B7A"/>
<rect x="8.5332" y="22.5" width="2.13323" height="2.16667" fill="#D7DAA8"/>
<rect x="8.5332" y="24.667" width="2.13323" height="2.16667" fill="#A5A647"/>
<rect x="10.6641" y="7.33301" width="2.13323" height="2.16667" fill="#A5A647"/>
<rect x="10.6641" y="9.5" width="2.13323" height="2.16667" fill="#D7DAA8"/>
<rect x="10.6641" y="11.667" width="2.13323" height="2.16667" fill="#8F8B7A"/>
<rect x="10.6641" y="13.833" width="2.13323" height="2.16667" fill="#48412F"/>
<rect x="10.6641" y="16" width="2.13323" height="2.16667" fill="#8F8B7A"/>
<rect x="10.6641" y="18.167" width="2.13323" height="2.16667" fill="#F7F7EF"/>
<rect x="10.6641" y="20.333" width="2.13323" height="2.16667" fill="#625D4C"/>
<rect x="10.6641" y="22.5" width="2.13323" height="2.16667" fill="#E7E7C5"/>
<rect x="10.6641" y="24.667" width="2.13323" height="2.16667" fill="#D7DAA8"/>
<rect x="10.6641" y="26.833" width="2.13323" height="2.16667" fill="#A5A647"/>
<rect x="12.8008" y="7.33301" width="2.13323" height="2.16667" fill="#A5A647"/>
<rect x="12.8008" y="9.5" width="2.13323" height="2.16667" fill="#F7F7EF"/>
<rect x="12.8008" y="11.667" width="2.13323" height="2.16667" fill="#625D4C"/>
<rect x="12.8008" y="13.833" width="2.13323" height="2.16667" fill="#B4B4AC"/>
<rect x="12.8008" y="16" width="2.13323" height="2.16667" fill="#F7F7EF"/>
<rect x="12.8008" y="18.167" width="2.13323" height="2.16667" fill="#48412F"/>
<rect x="12.8008" y="20.333" width="2.13323" height="2.16667" fill="#B4B4AC"/>
<rect x="12.8008" y="22.5" width="2.13323" height="2.16667" fill="#F7F7EF"/>
<rect x="12.8008" y="24.667" width="2.13323" height="2.16667" fill="#B9BF76"/>
<rect x="12.8008" y="26.833" width="2.13323" height="2.16667" fill="#A5A647"/>
<rect x="14.9316" y="5.16699" width="2.13323" height="2.16667" fill="#A5A647"/>
<rect x="14.9316" y="7.33301" width="2.13323" height="2.16667" fill="#48412F"/>
<rect x="14.9316" y="9.5" width="2.13323" height="2.16667" fill="#48412F"/>
<rect x="14.9316" y="11.667" width="2.13323" height="2.16667" fill="#48412F"/>
<rect x="14.9316" y="13.833" width="2.13323" height="2.16667" fill="#F7F7EF"/>
<rect x="14.9316" y="16" width="2.13323" height="2.16667" fill="#F7F7EF"/>
<rect x="14.9316" y="18.167" width="2.13323" height="2.16667" fill="#48412F"/>
<rect x="14.9316" y="20.333" width="2.13323" height="2.16667" fill="#48412F"/>
<rect x="14.9316" y="22.5" width="2.13323" height="2.16667" fill="#E7E7C5"/>
<rect x="14.9316" y="24.667" width="2.13323" height="2.16667" fill="#A5A647"/>
<rect x="17.0664" y="3" width="2.13323" height="2.16667" fill="#A5A647"/>
<rect x="17.0664" y="5.16699" width="2.13323" height="2.16667" fill="#D7DAA8"/>
<rect x="17.0664" y="7.33301" width="2.13323" height="2.16667" fill="#F7F7EF"/>
<rect x="17.0664" y="9.5" width="2.13323" height="2.16667" fill="#48412F"/>
<rect x="17.0664" y="11.667" width="2.13323" height="2.16667" fill="#B4B4AC"/>
<rect x="17.0664" y="13.833" width="2.13323" height="2.16667" fill="#48412F"/>
<rect x="17.0664" y="16" width="2.13323" height="2.16667" fill="#48412F"/>
<rect x="17.0664" y="18.167" width="2.13323" height="2.16667" fill="#F7F7EF"/>
<rect x="17.0664" y="20.333" width="2.13323" height="2.16667" fill="#F7F7EF"/>
<rect x="17.0664" y="22.5" width="2.13323" height="2.16667" fill="#B9BF76"/>
<rect x="17.0664" y="24.667" width="2.13323" height="2.16667" fill="#A5A647"/>
<rect x="19.1992" y="3" width="2.13323" height="2.16667" fill="#A5A647"/>
<rect x="19.1992" y="5.16699" width="2.13323" height="2.16667" fill="#D7DAA8"/>
<rect x="19.1992" y="7.33301" width="2.13323" height="2.16667" fill="#F7F7EF"/>
<rect x="19.1992" y="9.5" width="2.13323" height="2.16667" fill="#F7F7EF"/>
<rect x="19.1992" y="11.667" width="2.13323" height="2.16667" fill="#F7F7EF"/>
<rect x="19.1992" y="13.833" width="2.13323" height="2.16667" fill="#B4B4AC"/>
<rect x="19.1992" y="16" width="2.13323" height="2.16667" fill="#625D4C"/>
<rect x="19.1992" y="18.167" width="2.13323" height="2.16667" fill="#F7F7EF"/>
<rect x="19.1992" y="20.333" width="2.13323" height="2.16667" fill="#E7E7C5"/>
<rect x="19.1992" y="22.5" width="2.13323" height="2.16667" fill="#A5A647"/>
<rect x="21.334" y="5.16699" width="2.13323" height="2.16667" fill="#A5A647"/>
<rect x="21.334" y="7.33301" width="2.13323" height="2.16667" fill="#D7DAA8"/>
<rect x="21.334" y="9.5" width="2.13323" height="2.16667" fill="#F7F7EF"/>
<rect x="21.334" y="11.667" width="2.13323" height="2.16667" fill="#F7F7EF"/>
<rect x="21.334" y="13.833" width="2.13323" height="2.16667" fill="#F7F7EF"/>
<rect x="21.334" y="16" width="2.13323" height="2.16667" fill="#F7F7EF"/>
<rect x="21.334" y="18.167" width="2.13323" height="2.16667" fill="#D7DAA8"/>
<rect x="21.334" y="20.333" width="2.13323" height="2.16667" fill="#A5A647"/>
<rect x="23.4648" y="7.33301" width="2.13323" height="2.16667" fill="#A5A647"/>
<rect x="23.4648" y="9.5" width="2.13323" height="2.16667" fill="#D7DAA8"/>
<rect x="23.4648" y="11.667" width="2.13323" height="2.16667" fill="#F7F7EF"/>
<rect x="23.4648" y="13.833" width="2.13323" height="2.16667" fill="#F7F7EF"/>
<rect x="23.4648" y="16" width="2.13323" height="2.16667" fill="#F7F7EF"/>
<rect x="23.4648" y="18.167" width="2.13323" height="2.16667" fill="#D7DAA8"/>
<rect x="23.4648" y="20.333" width="2.13323" height="2.16667" fill="#A5A647"/>
<rect x="25.5977" y="9.5" width="2.13323" height="2.16667" fill="#A5A647"/>
<rect x="25.5977" y="11.667" width="2.13323" height="2.16667" fill="#A5A647"/>
<rect x="25.5977" y="13.833" width="2.13323" height="2.16667" fill="#D7DAA8"/>
<rect x="25.5977" y="16" width="2.13323" height="2.16667" fill="#D7DAA8"/>
<rect x="25.5977" y="18.167" width="2.13323" height="2.16667" fill="#A5A647"/>
<rect x="27.7305" y="11.667" width="2.13323" height="2.16667" fill="#A5A647"/>
<rect x="27.7305" y="13.833" width="2.13323" height="2.16667" fill="#A5A647"/>
<rect x="27.7305" y="16" width="2.13323" height="2.16667" fill="#A5A647"/>
<rect x="29.8652" y="13.833" width="2.13323" height="2.16667" fill="#A5A647"/>
<path d="M27.375 27.375H29V29H27.375V27.375Z" fill="#1E1D1E"/>
<path d="M25.75 27.375H27.375V29H25.75V27.375Z" fill="#1E1D1E"/>
<path d="M24.125 27.375H25.75V29H24.125V27.375Z" fill="#1E1D1E"/>
<path d="M27.375 25.75H29V27.375H27.375V25.75Z" fill="#1E1D1E"/>
<path d="M27.375 24.125H29V25.75H27.375V24.125Z" fill="#1E1D1E"/>
<path d="M24.125 25.75H25.75L25.75 27.375H24.125V25.75Z" fill="#1E1D1E"/>
<path d="M24.125 24.125H25.75V25.75H24.125V24.125Z" fill="#553D16"/>
<path d="M25.75 24.125H27.375V25.75H25.75V24.125Z" fill="#1E1D1E"/>
<path d="M25.75 25.75H27.375V27.375H25.75L25.75 25.75Z" fill="#1F99ED"/>
<path d="M24.125 22.5H25.75V24.125H24.125V22.5Z" fill="#382810"/>
<path d="M22.5 22.5H24.125V24.125L22.5 24.125V22.5Z" fill="#74541D"/>
<path d="M22.5 24.125L24.125 24.125V25.75L22.5 25.75V24.125Z" fill="#1E160A"/>
<path d="M20.875 22.5H22.5V24.125H20.875V22.5Z" fill="#1E160A"/>
<path d="M20.875 20.875H22.5L22.5 22.5H20.875V20.875Z" fill="#553D16"/>
<path d="M22.5 20.875H24.125L24.125 22.5H22.5L22.5 20.875Z" fill="#382810"/>
<path d="M19.25 20.875H20.875V22.5L19.25 22.5V20.875Z" fill="#553D16"/>
<path d="M20.875 19.25H22.5V20.875H20.875V19.25Z" fill="#1E1D1E"/>
<path d="M17.625 22.5L19.25 22.5L19.25 24.125H17.625V22.5Z" fill="#1E1D1E"/>
<path d="M16 22.5H17.625V24.125H16V22.5Z" fill="#1E1D1E"/>
<path d="M14.375 22.5H16V24.125H14.375V22.5Z" fill="#1F99ED"/>
<path d="M12.75 22.5H14.375V24.125H12.75V22.5Z" fill="#1E1D1E"/>
<path d="M14.375 24.125H16L16 25.75H14.375V24.125Z" fill="#1E1D1E"/>
<path d="M12.75 24.125H14.375V25.75H12.75V24.125Z" fill="#1E1D1E"/>
<path d="M14.375 20.875H16L16 22.5H14.375V20.875Z" fill="#1E1D1E"/>
<path d="M19.25 20.875H20.875V22.5L19.25 22.5V20.875Z" fill="#585858"/>
<path d="M19.25 20.875H20.875V22.5L19.25 22.5V20.875Z" fill="#553D16"/>
<path d="M19.25 20.875H20.875V22.5L19.25 22.5V20.875Z" fill="#553D16"/>
<path d="M19.25 20.875H20.875V22.5L19.25 22.5V20.875Z" fill="#553D16"/>
<path d="M19.25 20.875H20.875V22.5L19.25 22.5V20.875Z" fill="#553D16"/>
<path d="M19.25 20.875H20.875V22.5L19.25 22.5V20.875Z" fill="#553D16"/>
<path d="M19.25 20.875H20.875V22.5L19.25 22.5V20.875Z" fill="#553D16"/>
<path d="M19.25 20.875H20.875V22.5L19.25 22.5V20.875Z" fill="#553D16"/>
<path d="M19.25 20.875H20.875V22.5L19.25 22.5V20.875Z" fill="#553D16"/>
<path d="M19.25 20.875H20.875V22.5L19.25 22.5V20.875Z" fill="#848484"/>
<path d="M19.25 20.875H20.875V22.5L19.25 22.5V20.875Z" fill="#553D16"/>
<path d="M19.25 20.875H20.875V22.5L19.25 22.5V20.875Z" fill="#553D16"/>
<path d="M19.25 20.875H20.875V22.5L19.25 22.5V20.875Z" fill="#553D16"/>
<path d="M19.25 20.875H20.875V22.5L19.25 22.5V20.875Z" fill="#553D16"/>
<path d="M19.25 20.875H20.875V22.5L19.25 22.5V20.875Z" fill="#553D16"/>
<path d="M19.25 20.875H20.875V22.5L19.25 22.5V20.875Z" fill="#553D16"/>
<path d="M19.25 20.875H20.875V22.5L19.25 22.5V20.875Z" fill="#1E160A"/>
<path d="M16 19.25H17.625V20.875L16 20.875L16 19.25Z" fill="#1E1D1E"/>
<path d="M14.375 17.625H16L16 19.25L14.375 19.25V17.625Z" fill="#343434"/>
<path d="M12.75 16H14.375V17.625L12.75 17.625V16Z" fill="#343434"/>
<path d="M11.125 14.375H12.75L12.75 16L11.125 16V14.375Z" fill="#343434"/>
<path d="M9.5 12.75H11.125L11.125 14.375L9.5 14.375V12.75Z" fill="#343434"/>
<path d="M7.875 11.125H9.5L9.5 12.75L7.875 12.75V11.125Z" fill="#343434"/>
<path d="M6.25 9.5H7.875L7.875 11.125L6.25 11.125V9.5Z" fill="#343434"/>
<path d="M4.625 7.875H6.25L6.25 9.5L4.625 9.49999V7.875Z" fill="#343434"/>
<path d="M3 6.25004H4.625L4.625 7.875L3 7.87503V6.25004Z" fill="#343434"/>
<path d="M3 4.625H4.625V6.25004H3V4.625Z" fill="#343434"/>
<path d="M3 3H4.625V4.625H3V3Z" fill="#343434"/>
<path d="M4.625 3H6.25V4.62499L4.625 4.625V3Z" fill="#343434"/>
<path d="M6.25 3H7.875V4.62499H6.25V3Z" fill="#343434"/>
<path d="M7.875 4.62499L9.5 4.62504V6.25003H7.875L7.875 4.62499Z" fill="#343434"/>
<path d="M9.5 6.25003L11.125 6.25004V7.87503H9.5L9.5 6.25003Z" fill="#343434"/>
<path d="M11.125 7.87503L12.75 7.875V9.49999H11.125L11.125 7.87503Z" fill="#343434"/>
<path d="M12.75 9.49999L14.375 9.5V11.125H12.75L12.75 9.49999Z" fill="#343434"/>
<path d="M14.375 11.125L16 11.125V12.75H14.375V11.125Z" fill="#343434"/>
<path d="M16 12.75L17.625 12.75V14.375H16L16 12.75Z" fill="#343434"/>
<path d="M17.625 14.375L19.25 14.375V16H17.625L17.625 14.375Z" fill="#343434"/>
<path d="M20.875 14.375H22.5V16H20.875V14.375Z" fill="#1E1D1E"/>
<path d="M19.25 16L20.875 16L20.875 17.625H19.25L19.25 16Z" fill="#1E1D1E"/>
<path d="M22.5 12.75H24.125V14.375L22.5 14.375L22.5 12.75Z" fill="#1E1D1E"/>
<path d="M24.125 12.75H25.75V14.375H24.125V12.75Z" fill="#1E1D1E"/>
<path d="M24.125 14.375H25.75V16H24.125L24.125 14.375Z" fill="#1E1D1E"/>
<path d="M22.5 16H24.125L24.125 17.625H22.5L22.5 16Z" fill="#1E1D1E"/>
<path d="M22.5 17.625H24.125V19.25L22.5 19.25L22.5 17.625Z" fill="#1E1D1E"/>
<path d="M20.875 17.625H22.5L22.5 19.25H20.875L20.875 17.625Z" fill="#1F99ED"/>
<path d="M19.25 17.625H20.875L20.875 19.25L19.25 19.25V17.625Z" fill="#1E1D1E"/>
<path d="M17.625 17.625L19.25 17.625V19.25L17.625 19.25L17.625 17.625Z" fill="#5BC8EF"/>
<path d="M19.25 19.25L20.875 19.25V20.875H19.25V19.25Z" fill="#1F99ED"/>
<path d="M17.625 19.25L19.25 19.25V20.875L17.625 20.875V19.25Z" fill="#1E1D1E"/>
<path d="M20.875 16H22.5L22.5 17.625H20.875L20.875 16Z" fill="#1F99ED"/>
<path d="M22.5 14.375L24.125 14.375L24.125 16H22.5V14.375Z" fill="#1F99ED"/>
<path d="M17.625 16H19.25L19.25 17.625L17.625 17.625V16Z" fill="#1F99ED"/>
<path d="M16 16L17.625 16V17.625H16L16 16Z" fill="#5BC8EF"/>
<path d="M16 17.625H17.625L17.625 19.25H16L16 17.625Z" fill="#1F99ED"/>
<path d="M14.375 16H16L16 17.625H14.375V16Z" fill="#1F99ED"/>
<path d="M16 14.375H17.625L17.625 16L16 16V14.375Z" fill="#1F99ED"/>
<path d="M14.375 14.375L16 14.375V16H14.375V14.375Z" fill="#5BC8EF"/>
<path d="M12.75 14.375H14.375V16H12.75L12.75 14.375Z" fill="#1F99ED"/>
<path d="M12.75 12.75L14.375 12.75V14.375H12.75L12.75 12.75Z" fill="#5BC8EF"/>
<path d="M14.375 12.75H16L16 14.375L14.375 14.375V12.75Z" fill="#1F99ED"/>
<path d="M11.125 12.75H12.75L12.75 14.375H11.125L11.125 12.75Z" fill="#1F99ED"/>
<path d="M9.5 11.125H11.125V12.75H9.5L9.5 11.125Z" fill="#1F99ED"/>
<path d="M12.75 11.125H14.375V12.75L12.75 12.75V11.125Z" fill="#1F99ED"/>
<path d="M11.125 11.125L12.75 11.125V12.75H11.125V11.125Z" fill="#5BC8EF"/>
<path d="M7.875 9.5H9.5V11.125H7.875L7.875 9.5Z" fill="#1F99ED"/>
<path d="M11.125 9.49999H12.75L12.75 11.125L11.125 11.125L11.125 9.49999Z" fill="#1F99ED"/>
<path d="M9.5 9.5L11.125 9.49999L11.125 11.125H9.5V9.5Z" fill="#5BC8EF"/>
<path d="M6.25 7.875H7.875V9.5H6.25L6.25 7.875Z" fill="#1F99ED"/>
<path d="M9.5 7.87503H11.125L11.125 9.49999L9.5 9.5L9.5 7.87503Z" fill="#1F99ED"/>
<path d="M7.875 7.875L9.5 7.87503L9.5 9.5H7.875V7.875Z" fill="#5BC8EF"/>
<path d="M4.625 6.25004H6.25V7.875H4.625L4.625 6.25004Z" fill="#1F99ED"/>
<path d="M7.875 6.25003H9.5L9.5 7.87503L7.875 7.875L7.875 6.25003Z" fill="#1F99ED"/>
<path d="M6.25 6.25004L7.875 6.25003L7.875 7.875H6.25V6.25004Z" fill="#5BC8EF"/>
<path d="M6.25 4.62499H7.875L7.875 6.25003L6.25 6.25004V4.62499Z" fill="#1F99ED"/>
<path d="M4.625 4.625L6.25 4.62499V6.25004H4.625V4.625Z" fill="#5BC8EF"/>
<path d="M17.625 20.875L19.25 20.875V22.5L17.625 22.5L17.625 20.875Z" fill="#1F99ED"/>
<path d="M16 20.875L17.625 20.875L17.625 22.5H16L16 20.875Z" fill="#1F99ED"/>
</svg>
