<svg width="32" height="32" viewBox="0 0 32 32" fill="none" xmlns="http://www.w3.org/2000/svg">
<rect y="16" width="2.13323" height="2.16667" fill="#A5A647"/>
<rect x="2.13086" y="13.8335" width="2.13323" height="2.16667" fill="#A5A647"/>
<rect x="2.13086" y="16" width="2.13323" height="2.16667" fill="#D7DAA8"/>
<rect x="2.13086" y="18.167" width="2.13323" height="2.16667" fill="#A5A647"/>
<rect x="4.26758" y="11.667" width="2.13323" height="2.16667" fill="#A5A647"/>
<rect x="4.26758" y="13.8335" width="2.13323" height="2.16667" fill="#48412F"/>
<rect x="4.26758" y="16" width="2.13323" height="2.16667" fill="#48412F"/>
<rect x="4.26758" y="18.167" width="2.13323" height="2.16667" fill="#D7DAA8"/>
<rect x="4.26758" y="20.3335" width="2.13323" height="2.16667" fill="#A5A647"/>
<rect x="6.40039" y="11.667" width="2.13323" height="2.16667" fill="#A5A647"/>
<rect x="6.40039" y="13.8335" width="2.13323" height="2.16667" fill="#E7E7C5"/>
<rect x="6.40039" y="16" width="2.13323" height="2.16667" fill="#48412F"/>
<rect x="6.40039" y="18.167" width="2.13323" height="2.16667" fill="#E7E7C5"/>
<rect x="6.40039" y="20.3335" width="2.13323" height="2.16667" fill="#D7DAA8"/>
<rect x="6.40039" y="22.5" width="2.13323" height="2.16667" fill="#A5A647"/>
<rect x="8.5332" y="9.5" width="2.13323" height="2.16667" fill="#A5A647"/>
<rect x="8.5332" y="11.667" width="2.13323" height="2.16667" fill="#D7DAA8"/>
<rect x="8.5332" y="13.8335" width="2.13323" height="2.16667" fill="#B4B4AC"/>
<rect x="8.5332" y="16" width="2.13323" height="2.16667" fill="#625D4C"/>
<rect x="8.5332" y="18.167" width="2.13323" height="2.16667" fill="#48412F"/>
<rect x="8.5332" y="20.3335" width="2.13323" height="2.16667" fill="#8F8B7A"/>
<rect x="8.5332" y="22.5" width="2.13323" height="2.16667" fill="#D7DAA8"/>
<rect x="8.5332" y="24.667" width="2.13323" height="2.16667" fill="#A5A647"/>
<rect x="10.6641" y="7.3335" width="2.13323" height="2.16667" fill="#A5A647"/>
<rect x="10.6641" y="9.5" width="2.13323" height="2.16667" fill="#D7DAA8"/>
<rect x="10.6641" y="11.667" width="2.13323" height="2.16667" fill="#8F8B7A"/>
<rect x="10.6641" y="13.8335" width="2.13323" height="2.16667" fill="#48412F"/>
<rect x="10.6641" y="16" width="2.13323" height="2.16667" fill="#8F8B7A"/>
<rect x="10.6641" y="18.167" width="2.13323" height="2.16667" fill="#F7F7EF"/>
<rect x="10.6641" y="20.3335" width="2.13323" height="2.16667" fill="#625D4C"/>
<rect x="10.6641" y="22.5" width="2.13323" height="2.16667" fill="#E7E7C5"/>
<rect x="10.6641" y="24.667" width="2.13323" height="2.16667" fill="#D7DAA8"/>
<rect x="10.6641" y="26.8335" width="2.13323" height="2.16667" fill="#A5A647"/>
<rect x="12.8008" y="7.3335" width="2.13323" height="2.16667" fill="#A5A647"/>
<rect x="12.8008" y="9.5" width="2.13323" height="2.16667" fill="#F7F7EF"/>
<rect x="12.8008" y="11.667" width="2.13323" height="2.16667" fill="#625D4C"/>
<rect x="12.8008" y="13.8335" width="2.13323" height="2.16667" fill="#B4B4AC"/>
<rect x="12.8008" y="16" width="2.13323" height="2.16667" fill="#F7F7EF"/>
<rect x="12.8008" y="18.167" width="2.13323" height="2.16667" fill="#48412F"/>
<rect x="12.8008" y="20.3335" width="2.13323" height="2.16667" fill="#B4B4AC"/>
<rect x="12.8008" y="22.5" width="2.13323" height="2.16667" fill="#F7F7EF"/>
<rect x="12.8008" y="24.667" width="2.13323" height="2.16667" fill="#B9BF76"/>
<rect x="12.8008" y="26.8335" width="2.13323" height="2.16667" fill="#A5A647"/>
<rect x="14.9316" y="5.16699" width="2.13323" height="2.16667" fill="#A5A647"/>
<rect x="14.9316" y="7.3335" width="2.13323" height="2.16667" fill="#48412F"/>
<rect x="14.9316" y="9.5" width="2.13323" height="2.16667" fill="#48412F"/>
<rect x="14.9316" y="11.667" width="2.13323" height="2.16667" fill="#48412F"/>
<rect x="14.9316" y="13.8335" width="2.13323" height="2.16667" fill="#F7F7EF"/>
<rect x="14.9316" y="16" width="2.13323" height="2.16667" fill="#F7F7EF"/>
<rect x="14.9316" y="18.167" width="2.13323" height="2.16667" fill="#48412F"/>
<rect x="14.9316" y="20.3335" width="2.13323" height="2.16667" fill="#48412F"/>
<rect x="14.9316" y="22.5" width="2.13323" height="2.16667" fill="#E7E7C5"/>
<rect x="14.9316" y="24.667" width="2.13323" height="2.16667" fill="#A5A647"/>
<rect x="17.0664" y="3" width="2.13323" height="2.16667" fill="#A5A647"/>
<rect x="17.0664" y="5.16699" width="2.13323" height="2.16667" fill="#D7DAA8"/>
<rect x="17.0664" y="7.3335" width="2.13323" height="2.16667" fill="#F7F7EF"/>
<rect x="17.0664" y="9.5" width="2.13323" height="2.16667" fill="#48412F"/>
<rect x="17.0664" y="11.667" width="2.13323" height="2.16667" fill="#B4B4AC"/>
<rect x="17.0664" y="13.8335" width="2.13323" height="2.16667" fill="#48412F"/>
<rect x="17.0664" y="16" width="2.13323" height="2.16667" fill="#48412F"/>
<rect x="17.0664" y="18.167" width="2.13323" height="2.16667" fill="#F7F7EF"/>
<rect x="17.0664" y="20.3335" width="2.13323" height="2.16667" fill="#F7F7EF"/>
<rect x="17.0664" y="22.5" width="2.13323" height="2.16667" fill="#B9BF76"/>
<rect x="17.0664" y="24.667" width="2.13323" height="2.16667" fill="#A5A647"/>
<rect x="19.1992" y="3" width="2.13323" height="2.16667" fill="#A5A647"/>
<rect x="19.1992" y="5.16699" width="2.13323" height="2.16667" fill="#D7DAA8"/>
<rect x="19.1992" y="7.3335" width="2.13323" height="2.16667" fill="#F7F7EF"/>
<rect x="19.1992" y="9.5" width="2.13323" height="2.16667" fill="#F7F7EF"/>
<rect x="19.1992" y="11.667" width="2.13323" height="2.16667" fill="#F7F7EF"/>
<rect x="19.1992" y="13.8335" width="2.13323" height="2.16667" fill="#B4B4AC"/>
<rect x="19.1992" y="16" width="2.13323" height="2.16667" fill="#625D4C"/>
<rect x="19.1992" y="18.167" width="2.13323" height="2.16667" fill="#F7F7EF"/>
<rect x="19.1992" y="20.3335" width="2.13323" height="2.16667" fill="#E7E7C5"/>
<rect x="19.1992" y="22.5" width="2.13323" height="2.16667" fill="#A5A647"/>
<rect x="21.334" y="5.16699" width="2.13323" height="2.16667" fill="#A5A647"/>
<rect x="21.334" y="7.3335" width="2.13323" height="2.16667" fill="#D7DAA8"/>
<rect x="21.334" y="9.5" width="2.13323" height="2.16667" fill="#F7F7EF"/>
<rect x="21.334" y="11.667" width="2.13323" height="2.16667" fill="#F7F7EF"/>
<rect x="21.334" y="13.8335" width="2.13323" height="2.16667" fill="#F7F7EF"/>
<rect x="21.334" y="16" width="2.13323" height="2.16667" fill="#F7F7EF"/>
<rect x="21.334" y="18.167" width="2.13323" height="2.16667" fill="#D7DAA8"/>
<rect x="21.334" y="20.3335" width="2.13323" height="2.16667" fill="#A5A647"/>
<rect x="23.4648" y="7.3335" width="2.13323" height="2.16667" fill="#A5A647"/>
<rect x="23.4648" y="9.5" width="2.13323" height="2.16667" fill="#D7DAA8"/>
<rect x="23.4648" y="11.667" width="2.13323" height="2.16667" fill="#F7F7EF"/>
<rect x="23.4648" y="13.8335" width="2.13323" height="2.16667" fill="#F7F7EF"/>
<rect x="23.4648" y="16" width="2.13323" height="2.16667" fill="#F7F7EF"/>
<rect x="23.4648" y="18.167" width="2.13323" height="2.16667" fill="#D7DAA8"/>
<rect x="23.4648" y="20.3335" width="2.13323" height="2.16667" fill="#A5A647"/>
<rect x="25.5977" y="9.5" width="2.13323" height="2.16667" fill="#A5A647"/>
<rect x="25.5977" y="11.667" width="2.13323" height="2.16667" fill="#A5A647"/>
<rect x="25.5977" y="13.8335" width="2.13323" height="2.16667" fill="#D7DAA8"/>
<rect x="25.5977" y="16" width="2.13323" height="2.16667" fill="#D7DAA8"/>
<rect x="25.5977" y="18.167" width="2.13323" height="2.16667" fill="#A5A647"/>
<rect x="27.7305" y="11.667" width="2.13323" height="2.16667" fill="#A5A647"/>
<rect x="27.7305" y="13.8335" width="2.13323" height="2.16667" fill="#A5A647"/>
<rect x="27.7305" y="16" width="2.13323" height="2.16667" fill="#A5A647"/>
<rect x="29.8652" y="13.8335" width="2.13323" height="2.16667" fill="#A5A647"/>
<path d="M12.0274 8H19.5707V9.33333H12.0274V8Z" fill="#0B0B0B"/>
<path d="M12.0273 22.6667H19.5705V24H12.0273V22.6667Z" fill="#0B0B0B"/>
<path d="M24.6 11.9998V19.9998H23.3428V11.9998H24.6Z" fill="#0B0B0B"/>
<path d="M8.25721 11.9998L8.25721 19.9998H7L7 11.9998H8.25721Z" fill="#0B0B0B"/>
<path d="M19.5707 9.33333L22.0857 9.33336V10.6667H19.5713L19.5707 9.33333Z" fill="#0B0B0B"/>
<path d="M9.51323 9.33336L12.0274 9.33333L12.0276 10.6667H9.51323V9.33336Z" fill="#0B0B0B"/>
<path d="M12.0274 9.33333L14.5417 9.33336V10.6667H12.0276L12.0274 9.33333Z" fill="#A8A8A8"/>
<path d="M9.51323 17.3334H12.0276V18.6667H9.51323V17.3334Z" fill="white"/>
<path d="M12.0276 18.6667L14.5417 18.6666V19.9999H12.0273L12.0276 18.6667Z" fill="white"/>
<path d="M15.7999 18.6666H18.3144V19.9999H15.7999V18.6666Z" fill="#A6A6A6"/>
<path d="M14.5417 9.33336H15.7991V10.6667H14.5417V9.33336Z" fill="#A6A6A6"/>
<path d="M15.7999 9.33336H17.0571V10.6667H15.7999V9.33336Z" fill="#646464"/>
<path d="M17.0579 9.33336H18.3151V10.6667H17.0579V9.33336Z" fill="#A6A6A6"/>
<path d="M18.314 9.33336L19.5707 9.33333L19.5713 10.6667H18.314V9.33336Z" fill="#646464"/>
<path d="M19.5713 10.6667H22.0857V11.9999H19.5713V10.6667Z" fill="#646464"/>
<path d="M22.0857 11.9999L23.3428 11.9998L23.3432 13.3331H22.086L22.0857 11.9999Z" fill="#646464"/>
<path d="M22.086 17.3334H23.3432L23.3428 19.9998L22.086 20V17.3334Z" fill="#4F4D4D"/>
<path d="M19.5713 18.6666H20.8285V21.3332H19.5713V18.6666Z" fill="#646464"/>
<path d="M20.8285 18.6666H22.0852V21.3332H20.8285V18.6666Z" fill="#4F4D4D"/>
<path d="M18.3144 19.9999L19.5712 19.9998V22.6665H18.314L18.3144 19.9999Z" fill="#646464"/>
<path d="M17.0579 19.9998H18.3151V22.6665H17.0579V19.9998Z" fill="#A8A8A8"/>
<path d="M15.7999 19.9999L17.0571 19.9998V22.6665H15.7999V19.9999Z" fill="#A8A8A8"/>
<path d="M8.25721 17.3334H9.51442V20L8.25721 19.9998L8.25721 17.3334Z" fill="#A6A6A6"/>
<path d="M14.5417 19.9999L15.7991 19.9998V22.6665H14.5419L14.5417 19.9999Z" fill="#A6A6A6"/>
<path d="M13.2853 19.9998H14.5425L14.5419 22.6665H13.2853V19.9998Z" fill="#A6A6A6"/>
<path d="M12.0273 21.3333H13.2845V22.6666L12.0273 22.6667V21.3333Z" fill="#A8A8A8"/>
<path d="M9.51323 19.9998H10.7704V21.3331H9.51323V19.9998Z" fill="#A8A8A8"/>
<path d="M12.0273 19.9999L13.2845 19.9998V21.3333H12.0273V19.9999Z" fill="#A6A6A6"/>
<path d="M10.7712 19.9998H12.0284V21.3331H10.7712V19.9998Z" fill="#A6A6A6"/>
<path d="M10.7712 18.6666H12.0284V19.9998H10.7712V18.6666Z" fill="#A6A6A6"/>
<path d="M14.5417 18.6666H15.7991V19.9998L14.5417 19.9999V18.6666Z" fill="#A8A8A8"/>
<path d="M18.3144 18.6666H19.5713L19.5712 19.9998L18.3144 19.9999V18.6666Z" fill="#A6A6A6"/>
<path d="M22.086 15.9999H23.3432V17.3334H22.086V15.9999Z" fill="#A6A6A6"/>
<path d="M22.086 13.3331H23.3432V14.6666H22.086V13.3331Z" fill="#0B0B0B"/>
<path d="M22.086 14.6666H23.3432V15.9999H22.086V14.6666Z" fill="#0B0B0B"/>
<path d="M20.828 15.9999H22.0852V17.3332H20.828V15.9999Z" fill="#0B0B0B"/>
<path d="M20.828 11.9998L22.0857 11.9999L22.0852 13.3331H20.828V11.9998Z" fill="#0B0B0B"/>
<path d="M18.314 10.6667H19.5713V11.9999H18.314V10.6667Z" fill="#0B0B0B"/>
<path d="M12.0276 10.6667L13.2845 10.6666V11.9999H12.0273L12.0276 10.6667Z" fill="#0B0B0B"/>
<path d="M9.51323 10.6667L10.7704 10.6666V11.9999H9.51323V10.6667Z" fill="#646464"/>
<path d="M10.7712 10.6666H12.0284V11.9999H10.7712V10.6666Z" fill="#A6A6A6"/>
<path d="M9.51323 11.9999H10.7704V13.3331H9.51323V11.9999Z" fill="#0B0B0B"/>
<path d="M8.25721 11.9998H9.51442V13.3331H8.25721V11.9998Z" fill="#646464"/>
<path d="M9.51323 15.9999H10.7704V17.3332L9.51323 17.3334V15.9999Z" fill="#0B0B0B"/>
<path d="M8.25721 13.3331H9.51442V16H8.25721V13.3331Z" fill="#0B0B0B"/>
<path d="M19.5713 17.3334L22.0852 17.3332V18.6666H19.5713V17.3334Z" fill="#A6A6A6"/>
<path d="M9.51323 18.6667L10.7704 18.6666V19.9998H9.51323V18.6667Z" fill="#A6A6A6"/>
<path d="M8.25721 16H9.51442V17.3334H8.25721V16Z" fill="#A8A8A8"/>
<path d="M19.5713 21.3332H22.0852L22.0857 22.6666L19.5712 22.6665L19.5713 21.3332Z" fill="#0B0B0B"/>
<path d="M9.51323 21.3331L12.0273 21.3333V22.6667L9.51323 22.6666V21.3331Z" fill="#0B0B0B"/>
<path d="M22.0857 10.6667L23.3432 10.6666L23.3428 11.9998L22.0857 11.9999V10.6667Z" fill="#0B0B0B"/>
<path d="M8.25721 10.6666H9.51442V11.9998H8.25721V10.6666Z" fill="#0B0B0B"/>
<path d="M22.086 20L23.3428 19.9998L23.3432 21.3331H22.086V20Z" fill="#0B0B0B"/>
<path d="M8.25721 19.9998L9.51442 20V21.3331H8.25721L8.25721 19.9998Z" fill="#0B0B0B"/>
<path d="M13.2853 10.6666L18.314 10.6667V11.9999H13.2853V10.6666Z" fill="#0B0B0B"/>
<path d="M12.0276 17.3334H15.7989L15.7991 18.6666L12.0276 18.6667V17.3334Z" fill="#0B0B0B"/>
<path d="M17.0579 17.3334H19.5724V18.6667H17.0579V17.3334Z" fill="#0B0B0B"/>
<path d="M15.7999 17.3334H17.0571V18.6667L15.7999 18.6666V17.3334Z" fill="#BE1515"/>
<path d="M14.5419 14.6665H15.7991V15.9998H14.5419V14.6665Z" fill="#4F4D4D"/>
<path d="M17.0579 14.6665H18.3151V15.9998H17.0579V14.6665Z" fill="#4F4D4D"/>
<path d="M15.7999 13.3333H17.0571V14.6666H15.7999V13.3333Z" fill="#646464"/>
<path d="M15.7999 14.6666H17.0571V17.3334H15.7999V14.6666Z" fill="#FF1414"/>
<path d="M10.7712 11.9999L20.8289 11.9998V13.3331H10.7712V11.9999Z" fill="#0B0B0B"/>
<path d="M10.7712 15.9999H15.8001L15.7999 17.3334L10.7712 17.3332V15.9999Z" fill="#0B0B0B"/>
<path d="M17.0579 13.3333H22.0868V14.6666L17.0579 14.6665V13.3333Z" fill="#0B0B0B"/>
<path d="M9.51323 13.3331L15.7999 13.3333L15.7991 14.6665L9.51323 14.6666V13.3331Z" fill="#0B0B0B"/>
<path d="M9.51323 14.6666L14.5419 14.6665V15.9998L9.51323 15.9999V14.6666Z" fill="#0B0B0B"/>
<path d="M18.314 14.6665L22.086 14.6666L22.0852 15.9999L18.314 15.9998V14.6665Z" fill="#0B0B0B"/>
<path d="M17.0579 15.9998L20.8296 15.9999V17.3332L17.0579 17.3334V15.9998Z" fill="#0B0B0B"/>
</svg>
