<svg width="32" height="32" viewBox="0 0 32 32" fill="none" xmlns="http://www.w3.org/2000/svg">
<rect x="1" y="16" width="2.06665" height="2.16666" fill="#A5A647"/>
<rect x="3.06641" y="13.8335" width="2.06665" height="2.16666" fill="#A5A647"/>
<rect x="3.06641" y="16" width="2.06665" height="2.16666" fill="#D7DAA8"/>
<rect x="3.06641" y="18.1665" width="2.06665" height="2.16666" fill="#A5A647"/>
<rect x="5.13477" y="11.6665" width="2.06665" height="2.16666" fill="#A5A647"/>
<rect x="5.13477" y="13.8335" width="2.06665" height="2.16666" fill="#48412F"/>
<rect x="5.13477" y="16" width="2.06665" height="2.16666" fill="#48412F"/>
<rect x="5.13477" y="18.1665" width="2.06665" height="2.16666" fill="#D7DAA8"/>
<rect x="5.13477" y="20.333" width="2.06665" height="2.16666" fill="#A5A647"/>
<rect x="7.20117" y="11.6665" width="2.06665" height="2.16666" fill="#A5A647"/>
<rect x="7.20117" y="13.8335" width="2.06665" height="2.16666" fill="#E7E7C5"/>
<rect x="7.20117" y="16" width="2.06665" height="2.16666" fill="#48412F"/>
<rect x="7.20117" y="18.1665" width="2.06665" height="2.16666" fill="#E7E7C5"/>
<rect x="7.20117" y="20.333" width="2.06665" height="2.16666" fill="#D7DAA8"/>
<rect x="7.20117" y="22.5" width="2.06665" height="2.16666" fill="#A5A647"/>
<rect x="9.26562" y="9.5" width="2.06665" height="2.16666" fill="#A5A647"/>
<rect x="9.26562" y="11.6665" width="2.06665" height="2.16666" fill="#D7DAA8"/>
<rect x="9.26562" y="13.8335" width="2.06665" height="2.16666" fill="#B4B4AC"/>
<rect x="9.26562" y="16" width="2.06665" height="2.16666" fill="#625D4C"/>
<rect x="9.26562" y="18.1665" width="2.06665" height="2.16666" fill="#48412F"/>
<rect x="9.26562" y="20.333" width="2.06665" height="2.16666" fill="#8F8B7A"/>
<rect x="9.26562" y="22.5" width="2.06665" height="2.16666" fill="#D7DAA8"/>
<rect x="9.26562" y="24.6665" width="2.06665" height="2.16666" fill="#A5A647"/>
<rect x="11.332" y="7.3335" width="2.06665" height="2.16666" fill="#A5A647"/>
<rect x="11.332" y="9.5" width="2.06665" height="2.16666" fill="#D7DAA8"/>
<rect x="11.332" y="11.6665" width="2.06665" height="2.16666" fill="#8F8B7A"/>
<rect x="11.332" y="13.8335" width="2.06665" height="2.16666" fill="#48412F"/>
<rect x="11.332" y="16" width="2.06665" height="2.16666" fill="#8F8B7A"/>
<rect x="11.332" y="18.1665" width="2.06665" height="2.16666" fill="#F7F7EF"/>
<rect x="11.332" y="20.333" width="2.06665" height="2.16666" fill="#625D4C"/>
<rect x="11.332" y="22.5" width="2.06665" height="2.16666" fill="#E7E7C5"/>
<rect x="11.332" y="24.6665" width="2.06665" height="2.16666" fill="#D7DAA8"/>
<rect x="11.332" y="26.8335" width="2.06665" height="2.16666" fill="#A5A647"/>
<rect x="13.4004" y="7.3335" width="2.06665" height="2.16666" fill="#A5A647"/>
<rect x="13.4004" y="9.5" width="2.06665" height="2.16666" fill="#F7F7EF"/>
<rect x="13.4004" y="11.6665" width="2.06665" height="2.16666" fill="#625D4C"/>
<rect x="13.4004" y="13.8335" width="2.06665" height="2.16666" fill="#B4B4AC"/>
<rect x="13.4004" y="16" width="2.06665" height="2.16666" fill="#F7F7EF"/>
<rect x="13.4004" y="18.1665" width="2.06665" height="2.16666" fill="#48412F"/>
<rect x="13.4004" y="20.333" width="2.06665" height="2.16666" fill="#B4B4AC"/>
<rect x="13.4004" y="22.5" width="2.06665" height="2.16666" fill="#F7F7EF"/>
<rect x="13.4004" y="24.6665" width="2.06665" height="2.16666" fill="#B9BF76"/>
<rect x="13.4004" y="26.8335" width="2.06665" height="2.16666" fill="#A5A647"/>
<rect x="15.4668" y="5.16699" width="2.06665" height="2.16666" fill="#A5A647"/>
<rect x="15.4668" y="7.3335" width="2.06665" height="2.16666" fill="#48412F"/>
<rect x="15.4668" y="9.5" width="2.06665" height="2.16666" fill="#48412F"/>
<rect x="15.4668" y="11.6665" width="2.06665" height="2.16666" fill="#48412F"/>
<rect x="15.4668" y="13.8335" width="2.06665" height="2.16666" fill="#F7F7EF"/>
<rect x="15.4668" y="16" width="2.06665" height="2.16666" fill="#F7F7EF"/>
<rect x="15.4668" y="18.1665" width="2.06665" height="2.16666" fill="#48412F"/>
<rect x="15.4668" y="20.333" width="2.06665" height="2.16666" fill="#48412F"/>
<rect x="15.4668" y="22.5" width="2.06665" height="2.16666" fill="#E7E7C5"/>
<rect x="15.4668" y="24.6665" width="2.06665" height="2.16666" fill="#A5A647"/>
<rect x="17.5332" y="3" width="2.06665" height="2.16666" fill="#A5A647"/>
<rect x="17.5332" y="5.16699" width="2.06665" height="2.16666" fill="#D7DAA8"/>
<rect x="17.5332" y="7.3335" width="2.06665" height="2.16666" fill="#F7F7EF"/>
<rect x="17.5332" y="9.5" width="2.06665" height="2.16666" fill="#48412F"/>
<rect x="17.5332" y="11.6665" width="2.06665" height="2.16666" fill="#B4B4AC"/>
<rect x="17.5332" y="13.8335" width="2.06665" height="2.16666" fill="#48412F"/>
<rect x="17.5332" y="16" width="2.06665" height="2.16666" fill="#48412F"/>
<rect x="17.5332" y="18.1665" width="2.06665" height="2.16666" fill="#F7F7EF"/>
<rect x="17.5332" y="20.333" width="2.06665" height="2.16666" fill="#F7F7EF"/>
<rect x="17.5332" y="22.5" width="2.06665" height="2.16666" fill="#B9BF76"/>
<rect x="17.5332" y="24.6665" width="2.06665" height="2.16666" fill="#A5A647"/>
<rect x="19.5977" y="3" width="2.06665" height="2.16666" fill="#A5A647"/>
<rect x="19.5977" y="5.16699" width="2.06665" height="2.16666" fill="#D7DAA8"/>
<rect x="19.5977" y="7.3335" width="2.06665" height="2.16666" fill="#F7F7EF"/>
<rect x="19.5977" y="9.5" width="2.06665" height="2.16666" fill="#F7F7EF"/>
<rect x="19.5977" y="11.6665" width="2.06665" height="2.16666" fill="#F7F7EF"/>
<rect x="19.5977" y="13.8335" width="2.06665" height="2.16666" fill="#B4B4AC"/>
<rect x="19.5977" y="16" width="2.06665" height="2.16666" fill="#625D4C"/>
<rect x="19.5977" y="18.1665" width="2.06665" height="2.16666" fill="#F7F7EF"/>
<rect x="19.5977" y="20.333" width="2.06665" height="2.16666" fill="#E7E7C5"/>
<rect x="19.5977" y="22.5" width="2.06665" height="2.16666" fill="#A5A647"/>
<rect x="21.668" y="5.16699" width="2.06665" height="2.16666" fill="#A5A647"/>
<rect x="21.668" y="7.3335" width="2.06665" height="2.16666" fill="#D7DAA8"/>
<rect x="21.668" y="9.5" width="2.06665" height="2.16666" fill="#F7F7EF"/>
<rect x="21.668" y="11.6665" width="2.06665" height="2.16666" fill="#F7F7EF"/>
<rect x="21.668" y="13.8335" width="2.06665" height="2.16666" fill="#F7F7EF"/>
<rect x="21.668" y="16" width="2.06665" height="2.16666" fill="#F7F7EF"/>
<rect x="21.668" y="18.1665" width="2.06665" height="2.16666" fill="#D7DAA8"/>
<rect x="21.668" y="20.333" width="2.06665" height="2.16666" fill="#A5A647"/>
<rect x="23.7324" y="7.3335" width="2.06665" height="2.16666" fill="#A5A647"/>
<rect x="23.7324" y="9.5" width="2.06665" height="2.16666" fill="#D7DAA8"/>
<rect x="23.7324" y="11.6665" width="2.06665" height="2.16666" fill="#F7F7EF"/>
<rect x="23.7324" y="13.8335" width="2.06665" height="2.16666" fill="#F7F7EF"/>
<rect x="23.7324" y="16" width="2.06665" height="2.16666" fill="#F7F7EF"/>
<rect x="23.7324" y="18.1665" width="2.06665" height="2.16666" fill="#D7DAA8"/>
<rect x="23.7324" y="20.333" width="2.06665" height="2.16666" fill="#A5A647"/>
<rect x="25.7988" y="9.5" width="2.06665" height="2.16666" fill="#A5A647"/>
<rect x="25.7988" y="11.6665" width="2.06665" height="2.16666" fill="#A5A647"/>
<rect x="25.7988" y="13.8335" width="2.06665" height="2.16666" fill="#D7DAA8"/>
<rect x="25.7988" y="16" width="2.06665" height="2.16666" fill="#D7DAA8"/>
<rect x="25.7988" y="18.1665" width="2.06665" height="2.16666" fill="#A5A647"/>
<rect x="27.8672" y="11.6665" width="2.06665" height="2.16666" fill="#A5A647"/>
<rect x="27.8672" y="13.8335" width="2.06665" height="2.16666" fill="#A5A647"/>
<rect x="27.8672" y="16" width="2.06665" height="2.16666" fill="#A5A647"/>
<rect x="29.9336" y="13.8335" width="2.06665" height="2.16666" fill="#A5A647"/>
</svg>
