<svg width="179" height="25" viewBox="0 0 179 25" fill="none" xmlns="http://www.w3.org/2000/svg">
<path d="M8.17188 24L3.82812 4.54688H3.65625C3.85417 6.04688 3.95312 7.42188 3.95312 8.67188V24H0.015625V1.15625H6.54688L10.4531 19.1094H10.5781L14.4531 1.15625H21.0781V24H17.0469V8.51562C17.0469 7.23438 17.1198 5.92188 17.2656 4.57812H17.1406L12.8125 24H8.17188ZM25.875 24V1.15625H29.875V24H25.875ZM50.7031 24H45.5156L38.4531 7.45312H38.25C38.5104 8.71354 38.6406 10.0677 38.6406 11.5156V24H34.7031V1.15625H39.9219L46.9219 17.5312H47.0938C46.8958 16.4375 46.7969 15.1354 46.7969 13.625V1.15625H50.7031V24ZM65.0312 24H54.7344V1.15625H65.0312V4.82812H58.9844V10.2656H64.5938V13.9531H58.9844V20.2812H65.0312V24ZM75.9375 4.54688C74.7188 4.54688 73.7552 5.26042 73.0469 6.6875C72.349 8.11458 72 10.099 72 12.6406C72 17.9323 73.3802 20.5781 76.1406 20.5781C77.349 20.5781 78.6146 20.1927 79.9375 19.4219V23.2031C78.8229 23.9427 77.3958 24.3125 75.6562 24.3125C73.0833 24.3125 71.1042 23.2917 69.7188 21.25C68.3438 19.1979 67.6562 16.3177 67.6562 12.6094C67.6562 8.90104 68.3646 6.01042 69.7812 3.9375C71.2083 1.86458 73.1875 0.828125 75.7188 0.828125C76.5521 0.828125 77.349 0.942708 78.1094 1.17188C78.8802 1.40104 79.7031 1.80208 80.5781 2.375L79.1719 5.82812C78.7031 5.50521 78.2031 5.21354 77.6719 4.95312C77.1406 4.68229 76.5625 4.54688 75.9375 4.54688ZM87.4219 15.1094V24H83.1719V1.15625H88.7344C91.0885 1.15625 92.8229 1.71354 93.9375 2.82812C95.0625 3.94271 95.625 5.64583 95.625 7.9375C95.625 10.8229 94.651 12.8385 92.7031 13.9844L97.0938 24H92.5469L88.9375 15.1094H87.4219ZM87.4219 11.4531H88.5156C89.5156 11.4531 90.2344 11.1719 90.6719 10.6094C91.1094 10.0365 91.3281 9.1875 91.3281 8.0625C91.3281 6.89583 91.0938 6.06771 90.625 5.57812C90.1667 5.07812 89.4531 4.82812 88.4844 4.82812H87.4219V11.4531ZM109.984 24L108.672 18.2344H102.719L101.406 24H97.1562L102.812 1.0625H108.578L114.25 24H109.984ZM107.875 14.4688L106.656 9.15625C106.583 8.83333 106.417 8.02604 106.156 6.73438C105.906 5.43229 105.755 4.5625 105.703 4.125C105.568 5.02083 105.396 6.01042 105.188 7.09375C104.979 8.16667 104.438 10.625 103.562 14.4688H107.875ZM120.484 24H116.266V1.15625H126.5V4.82812H120.484V11.1719H126.094V14.8438H120.484V24ZM136.375 24H132.141V4.89062H127.766V1.15625H140.75V4.89062H136.375V24ZM143.969 24V1.15625H147.969V24H143.969ZM157.016 24H152.797V1.15625H163.031V4.82812H157.016V11.1719H162.625V14.8438H157.016V24ZM171.391 10.1719L174.438 1.15625H178.891L173.469 14.8438V24H169.281V15.0156L163.875 1.15625H168.359L171.391 10.1719Z" fill="#28B954"/>
</svg>
