<svg width="32" height="32" viewBox="0 0 32 32" fill="none" xmlns="http://www.w3.org/2000/svg">
<path d="M3 17.8571H4.85714V19.7143H3V17.8571Z" fill="#742800"/>
<path d="M3 16H4.85714V17.8571H3V16Z" fill="#742800"/>
<path d="M4.85714 12.2857H6.71429V14.1429H4.85714V12.2857Z" fill="#742800"/>
<path d="M4.85714 14.1429H6.71429V16H4.85714V14.1429Z" fill="#E78500"/>
<path d="M14.1429 12.2857H16V14.1429H14.1429V12.2857Z" fill="#E78500"/>
<path d="M16 14.1429H17.8571V16H16V14.1429Z" fill="#E78500"/>
<path d="M21.5714 19.7143H23.4286V21.5714H21.5714V19.7143Z" fill="#E78500"/>
<path d="M19.7143 23.4286H21.5714V25.2857H19.7143V23.4286Z" fill="#E78500"/>
<path d="M17.8571 14.1429H19.7143V16H17.8571V14.1429Z" fill="#FFFFB5"/>
<path d="M19.7143 17.8571H21.5714V19.7143H19.7143V17.8571Z" fill="#FFFFB5"/>
<path d="M17.8571 23.4286H19.7143V25.2857H17.8571V23.4286Z" fill="#FFFFB5"/>
<path d="M21.5714 21.5714H23.4286V23.4286H21.5714V21.5714Z" fill="#FFFFB5"/>
<path d="M23.4286 17.8571H25.2857V19.7143H23.4286V17.8571Z" fill="#A95000"/>
<path d="M23.4286 19.7143H25.2857V21.5714H23.4286V19.7143Z" fill="#D28003"/>
<path d="M23.4286 21.5714H25.2857V23.4286H23.4286V21.5714Z" fill="#C86200"/>
<path d="M23.4286 23.4286H25.2857V25.2857H23.4286V23.4286Z" fill="#A95000"/>
<path d="M21.5714 25.2857H23.4286V27.1429H21.5714V25.2857Z" fill="#A95000"/>
<path d="M21.5714 23.4286H23.4286V25.2857H21.5714V23.4286Z" fill="#A95000"/>
<path d="M19.7143 25.2857H21.5714V27.1429H19.7143V25.2857Z" fill="#A95000"/>
<path d="M17.8571 25.2857H19.7143V27.1429H17.8571V25.2857Z" fill="#A95000"/>
<path d="M16 25.2857H17.8571V27.1429H16V25.2857Z" fill="#A95000"/>
<path d="M14.1429 25.2857H16V27.1429H14.1429V25.2857Z" fill="#A95000"/>
<path d="M25.2857 21.5714H27.1429V23.4286H25.2857V21.5714Z" fill="#C86200"/>
<path d="M4.85714 16H6.71429V17.8571H4.85714V16Z" fill="#FEFFB5"/>
<path d="M4.85714 17.8571H6.71429V19.7143H4.85714V17.8571Z" fill="#FFD842"/>
<path d="M6.71429 17.8571H8.57143V19.7143H6.71429V17.8571Z" fill="#FCBF31"/>
<path d="M4.85714 19.7143H6.71429V21.5714H4.85714V19.7143Z" fill="#FFA300"/>
<path d="M6.71429 19.7143H8.57143V21.5714H6.71429V19.7143Z" fill="#FFA300"/>
<path d="M8.57143 23.4286H10.4286V25.2857H8.57143V23.4286Z" fill="#FFA300"/>
<path d="M19.7143 21.5714H21.5714V23.4286H19.7143V21.5714Z" fill="#FFA300"/>
<path d="M17.8571 19.7143H19.7143V21.5714H17.8571V19.7143Z" fill="#FFA300"/>
<path d="M6.71429 21.5714H8.57143V23.4286H6.71429V21.5714Z" fill="#FFFFB5"/>
<path d="M12.2857 4.85714H14.1429V6.71429H12.2857V4.85714Z" fill="#FFFFB5"/>
<path d="M21.5714 8.57143H23.4286V10.4286H21.5714V8.57143Z" fill="#FFA400"/>
<path d="M8.57143 21.5714H10.4286V23.4286H8.57143V21.5714Z" fill="#FFD842"/>
<path d="M10.4286 19.7143H12.2857V21.5714H10.4286V19.7143Z" fill="#FFCA00"/>
<path d="M12.2857 21.5714H14.1429V23.4286H12.2857V21.5714Z" fill="#FFCA00"/>
<path d="M12.2857 23.4286H14.1429V25.2857H12.2857V23.4286Z" fill="#CD5700"/>
<path d="M14.1429 21.5714H16V23.4286H14.1429V21.5714Z" fill="#CD5700"/>
<path d="M16 23.4286H17.8571V25.2857H16V23.4286Z" fill="#CD5700"/>
<path d="M14.1429 23.4286H16V25.2857H14.1429V23.4286Z" fill="#FFCA01"/>
<path d="M16 21.5714H17.8571V23.4286H16V21.5714Z" fill="#FFCA01"/>
<path d="M12.2857 19.7143H14.1429V21.5714H12.2857V19.7143Z" fill="#FFFFB5"/>
<path d="M16 19.7143H17.8571V21.5714H16V19.7143Z" fill="#FFFFB5"/>
<path d="M10.4286 17.8571H12.2857V19.7143H10.4286V17.8571Z" fill="#FFFFB5"/>
<path d="M10.4286 21.5714H12.2857V23.4286H10.4286V21.5714Z" fill="#FFD842"/>
<path d="M6.71429 8.57143H8.57143V10.4286H6.71429V8.57143Z" fill="#FFCA00"/>
<path d="M6.71429 10.4286H8.57143V12.2857H6.71429V10.4286Z" fill="#742800"/>
<path d="M4.85714 8.57143H6.71429V10.4286H4.85714V8.57143Z" fill="#742800"/>
<path d="M8.57143 8.57143H10.4286V10.4286H8.57143V8.57143Z" fill="#742800"/>
<path d="M6.71429 6.71429H8.57143V8.57143H6.71429V6.71429Z" fill="#742800"/>
<path d="M12.2857 6.71429H14.1429V8.57143H12.2857V6.71429Z" fill="#742800"/>
<path d="M21.5714 10.4286H23.4286V12.2857H21.5714V10.4286Z" fill="#742800"/>
<path d="M10.4286 4.85714H12.2857V6.71429H10.4286V4.85714Z" fill="#742800"/>
<path d="M19.7143 8.57143H21.5714V10.4286H19.7143V8.57143Z" fill="#742800"/>
<path d="M14.1429 4.85714H16V6.71429H14.1429V4.85714Z" fill="#742800"/>
<path d="M23.4286 8.57143H25.2857V10.4286H23.4286V8.57143Z" fill="#742800"/>
<path d="M12.2857 3H14.1429V4.85714H12.2857V3Z" fill="#742800"/>
<path d="M21.5714 6.71429H23.4286V8.57143H21.5714V6.71429Z" fill="#742800"/>
<path d="M6.71429 14.1429H8.57143V16H6.71429V14.1429Z" fill="#742800"/>
<path d="M3 14.1429H4.85714V16H3V14.1429Z" fill="#742800"/>
<path d="M4.85714 21.5714H6.71429V23.4286H4.85714V21.5714Z" fill="#742800"/>
<path d="M6.71429 23.4286H8.57143V25.2857H6.71429V23.4286Z" fill="#742800"/>
<path d="M8.57143 25.2857H10.4286V27.1429H8.57143V25.2857Z" fill="#742800"/>
<path d="M10.4286 23.4286H12.2857V25.2857H10.4286V23.4286Z" fill="#742800"/>
<path d="M12.2857 25.2857H14.1429V27.1429H12.2857V25.2857Z" fill="#742800"/>
<path d="M14.1429 27.1429H16V29H14.1429V27.1429Z" fill="#742800"/>
<path d="M16 27.1429H17.8571V29H16V27.1429Z" fill="#742800"/>
<path d="M17.8571 27.1429H19.7143V29H17.8571V27.1429Z" fill="#742800"/>
<path d="M19.7143 27.1429H21.5714V29H19.7143V27.1429Z" fill="#742800"/>
<path d="M21.5714 27.1429H23.4286V29H21.5714V27.1429Z" fill="#742800"/>
<path d="M23.4286 25.2857H25.2857V27.1429H23.4286V25.2857Z" fill="#742800"/>
<path d="M25.2857 23.4286H27.1429V25.2857H25.2857V23.4286Z" fill="#742800"/>
<path d="M27.1429 21.5714H29V23.4286H27.1429V21.5714Z" fill="#742800"/>
<path d="M25.2857 19.7143H27.1429V21.5714H25.2857V19.7143Z" fill="#742800"/>
<path d="M25.2857 17.8571H27.1429V19.7143H25.2857V17.8571Z" fill="#742800"/>
<path d="M23.4286 16H25.2857V17.8571H23.4286V16Z" fill="#742800"/>
<path d="M21.5714 17.8571H23.4286V19.7143H21.5714V17.8571Z" fill="#742800"/>
<path d="M19.7143 16H21.5714V17.8571H19.7143V16Z" fill="#742800"/>
<path d="M19.7143 14.1429H21.5714V16H19.7143V14.1429Z" fill="#742800"/>
<path d="M17.8571 12.2857H19.7143V14.1429H17.8571V12.2857Z" fill="#742800"/>
<path d="M16 12.2857H17.8571V14.1429H16V12.2857Z" fill="#742800"/>
<path d="M14.1429 10.4286H16V12.2857H14.1429V10.4286Z" fill="#742800"/>
<path d="M12.2857 12.2857H14.1429V14.1429H12.2857V12.2857Z" fill="#742800"/>
<path d="M14.1429 14.1429H16V16H14.1429V14.1429Z" fill="#742800"/>
<path d="M16 16H17.8571V17.8571H16V16Z" fill="#742800"/>
<path d="M14.1429 16H16V17.8571H14.1429V16Z" fill="#FFFF6D"/>
<path d="M14.1429 17.8571H16V19.7143H14.1429V17.8571Z" fill="#FFC900"/>
<path d="M19.7143 19.7143H21.5714V21.5714H19.7143V19.7143Z" fill="#FFC900"/>
<path d="M17.8571 17.8571H19.7143V19.7143H17.8571V17.8571Z" fill="#FFC900"/>
<path d="M14.1429 19.7143H16V21.5714H14.1429V19.7143Z" fill="#CB8C09"/>
<path d="M17.8571 21.5714H19.7143V23.4286H17.8571V21.5714Z" fill="#CB8C09"/>
<path d="M8.57143 19.7143H10.4286V21.5714H8.57143V19.7143Z" fill="#CB8C09"/>
<path d="M16 17.8571H17.8571V19.7143H16V17.8571Z" fill="#CB8C09"/>
<path d="M17.8571 16H19.7143V17.8571H17.8571V16Z" fill="#CB8C09"/>
<path d="M12.2857 16H14.1429V17.8571H12.2857V16Z" fill="#742800"/>
<path d="M10.4286 16H12.2857V17.8571H10.4286V16Z" fill="#742800"/>
<path d="M12.2857 17.8571H14.1429V19.7143H12.2857V17.8571Z" fill="#742800"/>
<path d="M8.57143 17.8571H10.4286V19.7143H8.57143V17.8571Z" fill="#742800"/>
<path d="M6.71429 16H8.57143V17.8571H6.71429V16Z" fill="#742800"/>
<path d="M3 19.7143H4.85714V21.5714H3V19.7143Z" fill="#742800"/>
</svg>
