<svg width="32" height="32" viewBox="0 0 32 32" fill="none" xmlns="http://www.w3.org/2000/svg">
<path d="M14 3H15.9999V5.00003H14V3Z" fill="#775251"/>
<path d="M4 14.9995H5.99994V16.9995H4V14.9995Z" fill="#775251"/>
<path d="M6 19.0005H7.99994V21.0005H6V19.0005Z" fill="#733432"/>
<path d="M5.99994 16.9995L7.99994 17V19.0005H6L5.99994 16.9995Z" fill="#8C3F3D"/>
<path d="M16.001 3H18.0009V5.00003H16.001V3Z" fill="#664645"/>
<path d="M18.0009 5.00003L20.0009 4.99951V6.99954H18.001L18.0009 5.00003Z" fill="#775251"/>
<path d="M19.999 4.99951H21.999V6.99954H19.999V4.99951Z" fill="#6C312F"/>
<path d="M22 6.99976H23.9999V8.99979H22V6.99976Z" fill="#6C312F"/>
<path d="M22 8.99979H23.9999V10.9993H22V8.99979Z" fill="#664645"/>
<path d="M23.998 11H25.998V15.0001H23.998V11Z" fill="#664645"/>
<path d="M26 14.9995H27.9999V20.9996H26V14.9995Z" fill="#664645"/>
<path d="M23.998 21H25.998V25.0001H23.998V21Z" fill="#5F2B29"/>
<path d="M22 22.9998H23.9999V26.9998H22V22.9998Z" fill="#5F2B29"/>
<path d="M23.998 19.0005H25.998V21H23.998V19.0005Z" fill="#6D312F"/>
<path d="M19.999 22.9998H21.999V24.9998H19.999V22.9998Z" fill="#733432"/>
<path d="M19.999 24.9998H21.999V27.0005H19.999V24.9998Z" fill="#5D403F"/>
<path d="M18.001 27H20.0009V29H18.001V27Z" fill="#5D403F"/>
<path d="M12.001 27H14.0009V29H12.001V27Z" fill="#5D403F"/>
<path d="M14.0009 27H17.9999V29H14.0009V27Z" fill="#642D2C"/>
<path d="M12.001 25.0005H20.0007L20.0009 27H12.001V25.0005Z" fill="#BD8280"/>
<path d="M8 22.9998H11.9999V24.9998H8V22.9998Z" fill="#BD8280"/>
<path d="M7.99994 21.0005L11.9999 21V22.9998H8L7.99994 21.0005Z" fill="#CE8E8B"/>
<path d="M7.99994 21.0005L8 10.9999H9.99994L9.99994 21L7.99994 21.0005Z" fill="#D99593"/>
<path d="M5.99994 16.9995V14.9995L7.99994 15V17L5.99994 16.9995Z" fill="#D99593"/>
<path d="M19.999 21V24.9998L17.9991 25.0001V21H19.999Z" fill="#BD8280"/>
<path d="M22 17V21.0001H20.0001V17H22Z" fill="#BD8280"/>
<path d="M26 14.9995V18.9996L24.0001 18.9996V14.9995H26Z" fill="#BD8280"/>
<path d="M22 13H20.0001V11L22 10.9993V13Z" fill="#BD8280"/>
<path d="M19.999 8.99927H17.9991V6.99924L19.999 6.99954V8.99927Z" fill="#BD8280"/>
<path d="M18.001 6.99954L16.001 6.99976L16.001 5.00003H18.0009L18.001 6.99954Z" fill="#BD8280"/>
<path d="M16.001 6.99976H14.001V4.99973L16.001 5.00003L16.001 6.99976Z" fill="#D08F8C"/>
<path d="M18.001 8.99927H16.001V6.99976L18.001 6.99954V8.99927Z" fill="#DB9794"/>
<path d="M18.001 13H16.001V8.99927H18.001V13Z" fill="#E49D9A"/>
<path d="M16.001 14.9995H14.001V10.9995H16.001V14.9995Z" fill="#E49D9A"/>
<path d="M10 14.9995L10 12.9995L13.9999 12.9995V14.9995L10 14.9995Z" fill="#E49D9A"/>
<path d="M19.999 13H17.9991V8.99927H19.999V13Z" fill="#D4928F"/>
<path d="M19.999 17H17.9991V15L19.999 15V17Z" fill="#A34A47"/>
<path d="M19.999 15L17.9991 15V13H19.999V15Z" fill="#8C3F3D"/>
<path d="M22 17H20.0001V13H22V17Z" fill="#733432"/>
<path d="M18.001 17H16.001L16.001 14.9995L18.001 15V17Z" fill="#D4928F"/>
<path d="M19.999 19.0005H15.9991V17.0005L19.999 17V19.0005Z" fill="#D4928F"/>
<path d="M19.999 21H15.9991V19.0005H19.999V21Z" fill="#D4928F"/>
<path d="M16.001 19.0005H14.001V17.0005L16.001 17L16.001 19.0005Z" fill="#D4928F"/>
<path d="M16.001 17L14.001 17.0005V14.9995H16.001L16.001 17Z" fill="#DA9693"/>
<path d="M18.001 15L16.001 14.9995L16.001 13H18.001V15Z" fill="#DA9693"/>
<path d="M12.001 11H10.001L10.001 6.99994L12.001 6.99994V11Z" fill="#8C3F3D"/>
<path d="M14 8.99927H12.0001V6.99924L14 6.99924V8.99927Z" fill="#8C3F3D"/>
<path d="M14 11H12.001L12.0001 8.99927H14V11Z" fill="#9D4744"/>
<path d="M13.9999 12.9995L10 12.9995L10.001 11H14L13.9999 12.9995Z" fill="#B1504D"/>
<path d="M14 11V6.99924L15.9999 6.99994V11H14Z" fill="#B1504D"/>
<path d="M12.001 21H10.001L10.001 19L12.001 19V21Z" fill="#E29B98"/>
<path d="M14 19.0005H12.0001V17.0005L14 17.0005V19.0005Z" fill="#E29B98"/>
<path d="M12.0001 19.0005L10.001 19V17.0005H12.0001V19.0005Z" fill="#C25854"/>
<path d="M14 17.0005L12.0001 17.0005V15L13.9999 14.9995L14 17.0005Z" fill="#C25854"/>
<path d="M12.001 17L10.001 17.0005V15H12.0001L12.001 17Z" fill="#AE4F4C"/>
<path d="M14 21H11.9999L12.0001 19.0005H14V21Z" fill="#D4928F"/>
<path d="M23.998 11V21L21.9981 21.0001V11H23.998Z" fill="#BD8280"/>
<path d="M19.999 21H23.998L23.9989 23L19.999 22.9998V21Z" fill="#733432"/>
<path d="M19.999 6.99954H21.999L21.9981 11L19.999 10.9998V6.99954Z" fill="#964441"/>
<path d="M10 4.99951L14 5.00003V6.99924L10 6.99954V4.99951Z" fill="#6E3230"/>
<path d="M10 6.99954L9.99994 10.9999H8L8.00006 6.99976L10 6.99954Z" fill="#6E3230"/>
<path d="M8 10.9999L7.99994 15L5.99994 14.9995L6.00006 11L8 10.9999Z" fill="#775251"/>
<path d="M7.99994 21.0005L8 24.9998L6.00006 25.0001L6 21.0005H7.99994Z" fill="#775251"/>
<path d="M8 24.9998H11.9999V27.0005H8V24.9998Z" fill="#775251"/>
<path d="M5.99994 16.9995L6 21.0005L4.00006 21.0001L4 16.9995H5.99994Z" fill="#6B312F"/>
<path d="M12.001 21H16.0009V23H12.001V21Z" fill="#90413F"/>
<path d="M18.001 25.0005H14.0011V23.0005L18.001 23.0005V25.0005Z" fill="#6E3230"/>
<path d="M12.001 23L14.0011 23.0005V25.0005H12.001V23Z" fill="#90413F"/>
<path d="M18.001 23.0005L16.0009 23V21L18.001 20.9997V23.0005Z" fill="#6E3230"/>
<path d="M16.0009 21H14.001V19.0005H16.001L16.0009 21Z" fill="#A74B48"/>
</svg>
