<svg width="32" height="32" viewBox="0 0 32 32" fill="none" xmlns="http://www.w3.org/2000/svg">
<path d="M7.00043 4.99986H5.00043V6.99986H7.00043V4.99986Z" fill="#714D12"/>
<path d="M9.00065 4.99986H7.00043V6.99986H9.00065V4.99986Z" fill="#4E330A"/>
<path d="M9.00065 6.99986H7.00043L7.00065 9.00008H9.00065V6.99986Z" fill="#95671B"/>
<path d="M7.00043 6.99986H5.00043V9.00008H7.00065L7.00043 6.99986Z" fill="#0B0B0B"/>
<path d="M7.00065 9.00008H5.00043V10.9999H7.00043L7.00065 9.00008Z" fill="#343434"/>
<path d="M10.9995 4.99986H8.99946V6.99986H10.9995V4.99986Z" fill="#343434"/>
<path d="M21.0005 3H11.0005V5H21.0005V3Z" fill="#343434"/>
<path d="M3 20.9998V10.9998L5.00043 10.9999L5 20.9998H3Z" fill="#343434"/>
<path d="M21.0005 7.00008H13.0005V9.00008H21.0005V7.00008Z" fill="#343434"/>
<path d="M7.00043 20.9998V12.9998H9.00043V20.9998H7.00043Z" fill="#343434"/>
<path d="M22.9993 4.99986H20.9993V6.99986H22.9993V4.99986Z" fill="#343434"/>
<path d="M5.00022 23.0001L5 20.9998H7.00043L7.00022 23.0001H5.00022Z" fill="#343434"/>
<path d="M21.0005 5L19.0005 4.99986V6.99986L21.0005 7.00008V5Z" fill="#5BC8EF"/>
<path d="M7.00043 20.9998V18.9998H5.00043L5 20.9998H7.00043Z" fill="#5BC8EF"/>
<path d="M19.0005 4.99986H17.0003V6.99986H19.0005V4.99986Z" fill="#5BC8EF"/>
<path d="M7.00043 18.9998V17H5.00043V18.9998H7.00043Z" fill="#5BC8EF"/>
<path d="M12.9997 4.99986H10.9995V6.99986L13.0005 7.00008L12.9997 4.99986Z" fill="#5BC8EF"/>
<path d="M13.0005 7.00008L10.9995 6.99986L10.9997 9.00008H13.0005V7.00008Z" fill="#5BC8EF"/>
<path d="M10.9995 6.99986H8.99946V9.00008H10.9997L10.9995 6.99986Z" fill="#5BC8EF"/>
<path d="M10.9997 9.00008H8.99946V10.9999H10.9995L10.9997 9.00008Z" fill="#5BC8EF"/>
<path d="M9.00065 9.00008H7.00065L7.00043 10.9999H9.00065V9.00008Z" fill="#5BC8EF"/>
<path d="M9.00065 10.9999H7.00043V12.9998H9.00043L9.00065 10.9999Z" fill="#5BC8EF"/>
<path d="M7.00043 10.9999H5.00043V13.0002L7.00043 12.9998V10.9999Z" fill="#5BC8EF"/>
<path d="M17.0003 4.99986H12.9997L13.0005 7.00008L17.0003 6.99986V4.99986Z" fill="#5BC8EF"/>
<path d="M5.00043 13.0002V17H7.00043V12.9998L5.00043 13.0002Z" fill="#5BC8EF"/>
<path d="M13.0005 9.00008H10.9997L10.9995 10.9999H12.9997L13.0005 9.00008Z" fill="#4E330A"/>
<path d="M14.9999 11.0002L12.9997 10.9999L12.9999 13.0002H14.9999V11.0002Z" fill="#4E330A"/>
<path d="M17.0001 13L14.9999 13.0002L15.0001 15H17.0001V13Z" fill="#4E330A"/>
<path d="M19.0003 14.9999L17.0001 15L17.0003 16.9999H19.0003V14.9999Z" fill="#4E330A"/>
<path d="M21.0005 17.0001L19.0003 16.9999L19.0005 19.0001H21.0005V17.0001Z" fill="#4E330A"/>
<path d="M22.9993 19H20.9993V21H22.9993V19Z" fill="#4E330A"/>
<path d="M24.9996 20.9998L22.9993 21L22.9996 22.9998H24.9996V20.9998Z" fill="#4E330A"/>
<path d="M26.9998 23.0001L24.9996 22.9998L24.9998 25.0001H26.9998V23.0001Z" fill="#4E330A"/>
<path d="M29 24.9999L26.9998 25.0001L27 26.9999H29V24.9999Z" fill="#4E330A"/>
<path d="M27 26.9999L24.9998 27.0001V29.0001H26.9998L27 26.9999Z" fill="#0B0B0B"/>
<path d="M24.9998 25.0001L22.9996 24.9999V26.9999L24.9998 27.0001V25.0001Z" fill="#0B0B0B"/>
<path d="M22.9996 22.9998L20.9993 23.0001V25.0001L22.9996 24.9999V22.9998Z" fill="#0B0B0B"/>
<path d="M21.0005 20.9998H19.0005V22.9998H21.0005V20.9998Z" fill="#0B0B0B"/>
<path d="M19.0005 19.0001L17.0003 19V21L19.0005 20.9998V19.0001Z" fill="#0B0B0B"/>
<path d="M17.0003 16.9999L15.0001 17.0001V19.0001L17.0003 19V16.9999Z" fill="#0B0B0B"/>
<path d="M15.0001 15L12.9999 14.9999V16.9999L15.0001 17.0001V15Z" fill="#0B0B0B"/>
<path d="M12.9999 13.0002L10.9997 13V15L12.9999 14.9999V13.0002Z" fill="#0B0B0B"/>
<path d="M10.9995 10.9999H8.99946V13.0002L10.9997 13L10.9995 10.9999Z" fill="#0B0B0B"/>
<path d="M12.9997 10.9999H10.9995L10.9997 13L12.9999 13.0002L12.9997 10.9999Z" fill="#714D12"/>
<path d="M17.0001 15H15.0001V17.0001L17.0003 16.9999L17.0001 15Z" fill="#714D12"/>
<path d="M21.0005 19.0001H19.0005V20.9998H21.0005V19.0001Z" fill="#714D12"/>
<path d="M24.9996 22.9998H22.9996V24.9999L24.9998 25.0001L24.9996 22.9998Z" fill="#714D12"/>
<path d="M29 26.9999H27L26.9998 29.0001H29V26.9999Z" fill="#714D12"/>
<path d="M14.9999 13.0002H12.9999V14.9999L15.0001 15L14.9999 13.0002Z" fill="#95671B"/>
<path d="M19.0003 16.9999H17.0003V19L19.0005 19.0001L19.0003 16.9999Z" fill="#95671B"/>
<path d="M22.9993 21H20.9993V23.0001L22.9996 22.9998L22.9993 21Z" fill="#95671B"/>
<path d="M26.9998 25.0001H24.9998V27.0001L27 26.9999L26.9998 25.0001Z" fill="#95671B"/>
<path d="M4.625 27.375H3V29H4.625V27.375Z" fill="#1E1D1E"/>
<path d="M6.25 27.375H4.625V29H6.25V27.375Z" fill="#1E1D1E"/>
<path d="M7.875 27.375H6.25V29H7.875V27.375Z" fill="#1E1D1E"/>
<path d="M4.625 25.75H3V27.375H4.625V25.75Z" fill="#1E1D1E"/>
<path d="M4.625 24.125H3V25.75H4.625V24.125Z" fill="#1E1D1E"/>
<path d="M7.875 25.75H6.25L6.25 27.375H7.875V25.75Z" fill="#1E1D1E"/>
<path d="M7.875 24.125H6.25V25.75H7.875V24.125Z" fill="#553D16"/>
<path d="M6.25 24.125H4.625V25.75H6.25V24.125Z" fill="#1E1D1E"/>
<path d="M6.25 25.75H4.625V27.375H6.25L6.25 25.75Z" fill="#1F99ED"/>
<path d="M7.875 22.5H6.25V24.125H7.875V22.5Z" fill="#382810"/>
<path d="M9.49999 22.5H7.875V24.125L9.49999 24.125V22.5Z" fill="#74541D"/>
<path d="M9.49999 24.125L7.875 24.125V25.75L9.49999 25.75V24.125Z" fill="#1E160A"/>
<path d="M11.125 22.5H9.49999V24.125H11.125V22.5Z" fill="#1E160A"/>
<path d="M11.125 20.875H9.49999L9.49999 22.5H11.125V20.875Z" fill="#553D16"/>
<path d="M9.49999 20.875H7.87499L7.875 22.5H9.49999L9.49999 20.875Z" fill="#382810"/>
<path d="M12.75 20.875H11.125V22.5L12.75 22.5V20.875Z" fill="#553D16"/>
<path d="M11.125 19.25H9.49999V20.875H11.125V19.25Z" fill="#1E1D1E"/>
<path d="M14.375 22.5L12.75 22.5L12.75 24.125H14.375V22.5Z" fill="#1E1D1E"/>
<path d="M16 22.5H14.375V24.125H16V22.5Z" fill="#1E1D1E"/>
<path d="M17.625 22.5H16V24.125H17.625V22.5Z" fill="#1F99ED"/>
<path d="M19.25 22.5H17.625V24.125H19.25V22.5Z" fill="#1E1D1E"/>
<path d="M17.625 24.125H16L16 25.75H17.625V24.125Z" fill="#1E1D1E"/>
<path d="M19.25 24.125H17.625V25.75H19.25V24.125Z" fill="#1E1D1E"/>
<path d="M17.625 20.875H16L16 22.5H17.625V20.875Z" fill="#1E1D1E"/>
<path d="M12.75 20.875H11.125V22.5L12.75 22.5V20.875Z" fill="#585858"/>
<path d="M12.75 20.875H11.125V22.5L12.75 22.5V20.875Z" fill="#553D16"/>
<path d="M12.75 20.875H11.125V22.5L12.75 22.5V20.875Z" fill="#553D16"/>
<path d="M12.75 20.875H11.125V22.5L12.75 22.5V20.875Z" fill="#553D16"/>
<path d="M12.75 20.875H11.125V22.5L12.75 22.5V20.875Z" fill="#553D16"/>
<path d="M12.75 20.875H11.125V22.5L12.75 22.5V20.875Z" fill="#553D16"/>
<path d="M12.75 20.875H11.125V22.5L12.75 22.5V20.875Z" fill="#553D16"/>
<path d="M12.75 20.875H11.125V22.5L12.75 22.5V20.875Z" fill="#553D16"/>
<path d="M12.75 20.875H11.125V22.5L12.75 22.5V20.875Z" fill="#553D16"/>
<path d="M12.75 20.875H11.125V22.5L12.75 22.5V20.875Z" fill="#848484"/>
<path d="M12.75 20.875H11.125V22.5L12.75 22.5V20.875Z" fill="#553D16"/>
<path d="M12.75 20.875H11.125V22.5L12.75 22.5V20.875Z" fill="#553D16"/>
<path d="M12.75 20.875H11.125V22.5L12.75 22.5V20.875Z" fill="#553D16"/>
<path d="M12.75 20.875H11.125V22.5L12.75 22.5V20.875Z" fill="#553D16"/>
<path d="M12.75 20.875H11.125V22.5L12.75 22.5V20.875Z" fill="#553D16"/>
<path d="M12.75 20.875H11.125V22.5L12.75 22.5V20.875Z" fill="#553D16"/>
<path d="M12.75 20.875H11.125V22.5L12.75 22.5V20.875Z" fill="#1E160A"/>
<path d="M16 19.25H14.375V20.875L16 20.875L16 19.25Z" fill="#1E1D1E"/>
<path d="M17.625 17.625H16L16 19.25L17.625 19.25V17.625Z" fill="#343434"/>
<path d="M19.25 16H17.625V17.625L19.25 17.625V16Z" fill="#343434"/>
<path d="M20.875 14.375H19.25L19.25 16L20.875 16V14.375Z" fill="#343434"/>
<path d="M22.5 12.75H20.875L20.875 14.375L22.5 14.375V12.75Z" fill="#343434"/>
<path d="M24.125 11.125H22.5L22.5 12.75L24.125 12.75V11.125Z" fill="#343434"/>
<path d="M25.75 9.49999H24.125L24.125 11.125L25.75 11.125V9.49999Z" fill="#343434"/>
<path d="M27.375 7.87499H25.75L25.75 9.49999L27.375 9.49998V7.87499Z" fill="#343434"/>
<path d="M29 6.25004H27.375L27.375 7.87499L29 7.87502V6.25004Z" fill="#343434"/>
<path d="M29 4.625H27.375V6.25004H29V4.625Z" fill="#343434"/>
<path d="M29 3H27.375V4.625H29V3Z" fill="#343434"/>
<path d="M27.375 3H25.75V4.62499L27.375 4.625V3Z" fill="#343434"/>
<path d="M25.75 3H24.125V4.62499H25.75V3Z" fill="#343434"/>
<path d="M24.125 4.62499L22.5 4.62504V6.25002H24.125L24.125 4.62499Z" fill="#343434"/>
<path d="M22.5 6.25002L20.875 6.25004V7.87502H22.5L22.5 6.25002Z" fill="#343434"/>
<path d="M20.875 7.87502L19.25 7.87499V9.49998H20.875L20.875 7.87502Z" fill="#343434"/>
<path d="M19.25 9.49998L17.625 9.49999V11.125H19.25L19.25 9.49998Z" fill="#343434"/>
<path d="M17.625 11.125L16 11.125V12.75H17.625V11.125Z" fill="#343434"/>
<path d="M16 12.75L14.375 12.75V14.375H16L16 12.75Z" fill="#343434"/>
<path d="M14.375 14.375L12.75 14.375V16H14.375L14.375 14.375Z" fill="#343434"/>
<path d="M11.125 14.375H9.49999V16H11.125V14.375Z" fill="#1E1D1E"/>
<path d="M12.75 16L11.125 16L11.125 17.625H12.75L12.75 16Z" fill="#1E1D1E"/>
<path d="M9.49999 12.75H7.87499V14.375L9.49999 14.375L9.49999 12.75Z" fill="#1E1D1E"/>
<path d="M7.87499 12.75H6.25V14.375H7.87499V12.75Z" fill="#1E1D1E"/>
<path d="M7.87499 14.375H6.25V16H7.875L7.87499 14.375Z" fill="#1E1D1E"/>
<path d="M9.49999 16H7.875L7.87499 17.625H9.49999L9.49999 16Z" fill="#1E1D1E"/>
<path d="M9.49999 17.625H7.87499V19.25L9.49999 19.25L9.49999 17.625Z" fill="#1E1D1E"/>
<path d="M11.125 17.625H9.49999L9.49999 19.25H11.125L11.125 17.625Z" fill="#1F99ED"/>
<path d="M12.75 17.625H11.125L11.125 19.25L12.75 19.25V17.625Z" fill="#1E1D1E"/>
<path d="M14.375 17.625L12.75 17.625V19.25L14.375 19.25L14.375 17.625Z" fill="#5BC8EF"/>
<path d="M12.75 19.25L11.125 19.25V20.875H12.75V19.25Z" fill="#1F99ED"/>
<path d="M14.375 19.25L12.75 19.25V20.875L14.375 20.875V19.25Z" fill="#1E1D1E"/>
<path d="M11.125 16H9.49999L9.49999 17.625H11.125L11.125 16Z" fill="#1F99ED"/>
<path d="M9.49999 14.375L7.87499 14.375L7.875 16H9.49999V14.375Z" fill="#1F99ED"/>
<path d="M14.375 16H12.75L12.75 17.625L14.375 17.625V16Z" fill="#1F99ED"/>
<path d="M16 16L14.375 16V17.625H16L16 16Z" fill="#5BC8EF"/>
<path d="M16 17.625H14.375L14.375 19.25H16L16 17.625Z" fill="#1F99ED"/>
<path d="M17.625 16H16L16 17.625H17.625V16Z" fill="#1F99ED"/>
<path d="M16 14.375H14.375L14.375 16L16 16V14.375Z" fill="#1F99ED"/>
<path d="M17.625 14.375L16 14.375V16H17.625V14.375Z" fill="#5BC8EF"/>
<path d="M19.25 14.375H17.625V16H19.25L19.25 14.375Z" fill="#1F99ED"/>
<path d="M19.25 12.75L17.625 12.75V14.375H19.25L19.25 12.75Z" fill="#5BC8EF"/>
<path d="M17.625 12.75H16L16 14.375L17.625 14.375V12.75Z" fill="#1F99ED"/>
<path d="M20.875 12.75H19.25L19.25 14.375H20.875L20.875 12.75Z" fill="#1F99ED"/>
<path d="M22.5 11.125H20.875V12.75H22.5L22.5 11.125Z" fill="#1F99ED"/>
<path d="M19.25 11.125H17.625V12.75L19.25 12.75V11.125Z" fill="#1F99ED"/>
<path d="M20.875 11.125L19.25 11.125V12.75H20.875V11.125Z" fill="#5BC8EF"/>
<path d="M24.125 9.49999H22.5V11.125H24.125L24.125 9.49999Z" fill="#1F99ED"/>
<path d="M20.875 9.49998H19.25L19.25 11.125L20.875 11.125L20.875 9.49998Z" fill="#1F99ED"/>
<path d="M22.5 9.49999L20.875 9.49998L20.875 11.125H22.5V9.49999Z" fill="#5BC8EF"/>
<path d="M25.75 7.87499H24.125V9.49999H25.75L25.75 7.87499Z" fill="#1F99ED"/>
<path d="M22.5 7.87502H20.875L20.875 9.49998L22.5 9.49999L22.5 7.87502Z" fill="#1F99ED"/>
<path d="M24.125 7.87499L22.5 7.87502L22.5 9.49999H24.125V7.87499Z" fill="#5BC8EF"/>
<path d="M27.375 6.25004H25.75V7.87499H27.375L27.375 6.25004Z" fill="#1F99ED"/>
<path d="M24.125 6.25002H22.5L22.5 7.87502L24.125 7.87499L24.125 6.25002Z" fill="#1F99ED"/>
<path d="M25.75 6.25004L24.125 6.25002L24.125 7.87499H25.75V6.25004Z" fill="#5BC8EF"/>
<path d="M25.75 4.62499H24.125L24.125 6.25002L25.75 6.25004V4.62499Z" fill="#1F99ED"/>
<path d="M27.375 4.625L25.75 4.62499V6.25004H27.375V4.625Z" fill="#5BC8EF"/>
<path d="M14.375 20.875L12.75 20.875V22.5L14.375 22.5L14.375 20.875Z" fill="#1F99ED"/>
<path d="M16 20.875L14.375 20.875L14.375 22.5H16L16 20.875Z" fill="#1F99ED"/>
</svg>
