<svg version="1.1" xmlns="http://www.w3.org/2000/svg" x="0px" y="0px" viewBox="0 0 256 256" enable-background="new 0 0 256 256" xml:space="preserve">
<g><g><path fill="#000000" d="M128,10C62.8,10,10,62.8,10,128c0,36.1,16.2,68.3,41.7,90c20.6,17.5,47.2,28,76.3,28c29.1,0,55.7-10.5,76.3-28c25.5-21.7,41.7-53.9,41.7-90C246,62.8,193.2,10,128,10z M128,242.1c-27.9,0-53.5-10.1-73.4-26.9c6.1-26.1,28.3-47.6,55.7-53.5c11.6-2.5,23.7-2.5,35.4,0c27.4,5.9,49.6,27.4,55.7,53.5C181.5,231.9,155.9,242.1,128,242.1z M128,155.5c-5.7,0-11.3-1.1-16.6-3.3c-16.2-6.7-26.7-22.4-26.7-40C84.7,88.4,104.1,69,128,69c23.8,0,43.3,19.4,43.3,43.3c0,17.6-10.5,33.3-26.7,40C139.3,154.4,133.7,155.5,128,155.5z M204.7,212.3c-7.1-26.7-30.1-48.4-58.2-54.5c-1.3-0.3-2.6-0.5-3.9-0.7c1.2-0.4,2.3-0.8,3.5-1.3c17.1-7.1,29.1-23.9,29.1-43.6c0-26.1-21.1-47.2-47.2-47.2c-26.1,0-47.2,21.1-47.2,47.2c0,19.7,12,36.5,29.1,43.6c1.1,0.5,2.3,0.9,3.5,1.3c-1.3,0.2-2.6,0.5-3.9,0.7c-28.1,6.1-51.1,27.8-58.2,54.4c-23-20.9-37.4-50.9-37.4-84.3C13.9,65.1,65.1,13.9,128,13.9C190.9,13.9,242,65.1,242,128C242.1,161.4,227.6,191.4,204.7,212.3z"/></g></g>
</svg>